<!-- Generated by IcoMoon.io -->
<svg version="1.1" xmlns="http://www.w3.org/2000/svg" width="24" height="24" viewBox="0 0 24 24">
<title>deploy</title>
<path d="M20.143 3.085c-0.343 0-6.771 0.086-11.4 6h-2.229l-3.514 4.286h4.114c-0.257 0.343-0.429 0.686-0.6 1.029-0.172 0.429-0.257 0.857-0.429 1.286-0.257 0.857-0.343 1.628-0.343 1.628l-0.172 1.2 1.2-0.257c0 0 0.771-0.172 1.628-0.343 0.429-0.085 0.857-0.257 1.286-0.429 0.343-0.172 0.686-0.257 1.029-0.6v4.114l4.286-3.343v-2.314c6-4.714 6-11.143 6-11.486v-0.857h-0.857v0.086zM16.286 6.514c0.686 0 1.286 0.6 1.286 1.286s-0.6 1.286-1.286 1.286c-0.686 0-1.286-0.6-1.286-1.286s0.6-1.286 1.286-1.286v0zM12.857 9.943c0.686 0 1.286 0.6 1.286 1.286s-0.6 1.286-1.286 1.286c-0.686 0-1.286-0.6-1.286-1.286s0.6-1.286 1.286-1.286v0 0zM8.743 14.143l1.2 1.286-0.257 0.257c0 0-0.257 0.172-0.514 0.257-0.343 0.085-0.686 0.257-1.114 0.343-0.257 0.085-0.257 0.085-0.343 0.085 0-0.085 0-0.085 0.086-0.172 0.086-0.429 0.257-0.771 0.343-1.114s0.257-0.6 0.257-0.514l0.343-0.429v0.001z"></path>
</svg>
