<!-- Generated by IcoMoon.io -->
<svg version="1.1" xmlns="http://www.w3.org/2000/svg" width="24" height="24" viewBox="0 0 24 24">
<title>settings</title>
<path d="M9.614 2l-0.508 2.5c-0.812 0.3-1.624 0.8-2.335 1.3l-2.436-0.8-2.335 4 1.929 1.7c-0.101 0.9-0.101 1.7 0 2.6l-1.929 1.7 2.335 4 2.436-0.8c0.71 0.5 1.421 1 2.335 1.3l0.508 2.5h4.771l0.508-2.5c0.812-0.3 1.624-0.7 2.335-1.3l2.436 0.8 2.335-4-1.929-1.7c0.101-0.9 0.101-1.7 0-2.6l1.827-1.7-2.335-4-2.436 0.8c-0.71-0.5-1.421-1-2.335-1.3l-0.508-2.5h-4.67zM11.949 8c2.233 0 4.060 1.8 4.060 4s-1.827 4-4.060 4c-2.233 0-4.060-1.8-4.060-4s1.827-4 4.060-4v0z"></path>
</svg>
