<!-- Generated by IcoMoon.io -->
<svg version="1.1" xmlns="http://www.w3.org/2000/svg" width="24" height="24" viewBox="0 0 24 24">
<title>utility</title>
<path d="M21.6 5.387c0.3 0.697 0.399 1.395 0.399 2.092 0 2.989-2.498 5.479-5.496 5.479-0.899 0-1.699-0.2-2.498-0.598l-7.795 8.867c-0.999 0.996-2.599 0.996-3.498 0s-0.999-2.59 0-3.487l8.895-7.77c-0.399-0.797-0.6-1.594-0.6-2.49 0-2.989 2.498-5.479 5.496-5.479 0.8 0 1.499 0.199 2.099 0.398l-3.598 3.586 2.998 2.989 3.598-3.586zM5.111 6.383l3.898 3.786 0.8-0.697c-0.1-0.398-0.2-0.797-0.2-1.295l-3.198-3.088v-1.195l-3.098-1.893-1.299 1.295 1.899 3.088 1.199-0.001zM17.603 14.353c-0.399 0.099-0.699 0.099-1.1 0.099-0.699 0-1.399-0.099-1.999-0.299l-1.599 1.793 4.597 5.18c0.999 1.096 2.698 1.195 3.697 0.099 1.1-1.096 0.999-2.69-0.1-3.686l-3.497-3.187z"></path>
</svg>
